<svg width="10" height="10" viewBox="0 0 10 10" fill="none" xmlns="http://www.w3.org/2000/svg">
<g id="Group">
<path id="Vector" d="M8.75 0.5C8.525 0.5 8.375 0.575 8.225 0.724999L0.725 8.225C0.425 8.525 0.425 8.975 0.725 9.275C1.025 9.575 1.475 9.575 1.775 9.275L9.275 1.775C9.575 1.475 9.575 1.025 9.275 0.724999C9.125 0.575 8.975 0.5 8.75 0.5Z" fill="#077CEA"/>
<path id="Vector_2" d="M8.75 0.5H2C1.55 0.5 1.25 0.8 1.25 1.25C1.25 1.7 1.55 2 2 2H8V8C8 8.45 8.3 8.75 8.75 8.75C9.2 8.75 9.5 8.45 9.5 8V1.25C9.5 0.8 9.2 0.5 8.75 0.5Z" fill="#077CEA"/>
</g>
</svg>
